<svg id="Layer_1" enable-background="new 0 0 497 497" height="512" viewBox="0 0 497 497" width="512" xmlns="http://www.w3.org/2000/svg"><g><g fill="#8288cb"><path d="m322.057 382.247c-10.709 0-20.757 2.861-29.444 7.837l-20 17.75 20 33.857c0-16.235 13.209-29.444 29.444-29.444 11.334 0 20.556 9.222 20.556 20.556 0 7.413-6.031 13.444-13.444 13.444-8.284 0-15 6.716-15 15s6.716 15 15 15c23.955 0 43.444-19.489 43.444-43.444-.001-27.877-22.68-50.556-50.556-50.556z"/><path d="m142.16 432.803c0 23.955 19.489 43.444 43.444 43.444 8.284 0 15-6.716 15-15s-6.716-15-15-15c-7.413 0-13.444-6.031-13.444-13.444 0-11.334 9.222-20.556 20.556-20.556 16.235 0 29.444 13.209 29.444 29.444l20-33.857-20-17.75c-8.688-4.977-18.735-7.837-29.444-7.837-27.876 0-50.556 22.679-50.556 50.556z"/></g><g><path d="m317.062 94.49c-28.54-12.569-47.435-40.735-47.435-72.446 0-13.483-11.784-23.836-24.848-21.784-77.691 12.196-137.183 80.689-137.183 163.356 0 35.209 10.828 67.359 29.221 94.171 26.853 39.144 69.872 66.358 119.202 70.542 52.673 4.467 100.779-25.211 121.936-70.542 7.073-15.155 11.278-31.875 11.443-49.9.465-50.79-29.45-94.51-72.336-113.397z" fill="#ffb357"/><path d="m288.666 158.965c-26.465-11.655-48.373-30.377-63.888-53.355-6.286-9.31-19.827-9.89-26.675-.983-12.575 16.354-20.055 36.978-20.055 58.989 0 53.536 43.557 94.171 88.503 94.171 28.635 0 52.142-22.38 52.399-50.542.192-21.14-11.694-40.092-30.284-48.28z" fill="#fce3a0"/></g><g><path d="m222.16 360.084v101.69c0 19.455 15.771 35.226 35.226 35.226s35.226-15.771 35.226-35.226v-101.69l-35.226-23.484z" fill="#676fb2"/><g><path d="m272.278 257.787c-11.019 0-21.053 6.343-25.779 16.297l-15.746 33.162 61.859 52.839h32.504c29.182 0 52.839-23.657 52.839-52.839v-49.458h-105.677z" fill="#9ea2e3"/><path d="m272.278 307.246v-49.458h-135.46v49.458c0 29.182 23.657 52.839 52.839 52.839h135.46c-29.183-.001-52.839-23.657-52.839-52.839z" fill="#8288cb"/></g></g><g fill="#ff8e9e"><path d="m182.184 300.376c-13.807 0-25 8.914-25 19.909s11.193 19.909 25 19.909 25-8.913 25-19.909c0-10.995-11.193-19.909-25-19.909z"/><path d="m332.588 300.376c-13.807 0-25 8.914-25 19.909s11.193 19.909 25 19.909 25-8.913 25-19.909c0-10.995-11.193-19.909-25-19.909z"/></g><g fill="#313d40"><path d="m194.937 281.75c-4.143 0-7.5 3.357-7.5 7.5v12c0 4.143 3.357 7.5 7.5 7.5s7.5-3.357 7.5-7.5v-12c0-4.143-3.357-7.5-7.5-7.5z"/><path d="m319.835 281.75c-4.143 0-7.5 3.357-7.5 7.5v12c0 4.143 3.357 7.5 7.5 7.5s7.5-3.357 7.5-7.5v-12c0-4.143-3.357-7.5-7.5-7.5z"/><path d="m278.778 295.238c-3.123-2.722-7.86-2.396-10.582.727-5.724 6.568-15.9 6.565-21.62.001-2.721-3.123-7.459-3.448-10.581-.728-3.123 2.721-3.449 7.459-.728 10.581 11.701 13.43 32.544 13.417 44.237.001 2.722-3.122 2.397-7.86-.726-10.582z"/></g></g></svg>